<svg width="824" height="672" viewBox="0 0 824 672" fill="none" xmlns="http://www.w3.org/2000/svg">
<rect width="824" height="672" fill="#151515"/>
<rect x="20" y="614" width="132.6" height="29.4" rx="5.76" fill="#0C0C0C"/>
<rect x="20.3" y="614.3" width="132" height="28.8" rx="5.46" stroke="white" stroke-opacity="0.2" stroke-width="0.6"/>
<rect x="625" y="613" width="179.85" height="29.4" rx="5.76" fill="#0C0C0C"/>
<rect x="625.3" y="613.3" width="179.25" height="28.8" rx="5.46" stroke="white" stroke-opacity="0.2" stroke-width="0.6"/>
<path d="M776.05 626.35C775.308 626.35 774.7 626.957 774.7 627.7C774.7 628.442 775.308 629.05 776.05 629.05C776.793 629.05 777.4 628.442 777.4 627.7C777.4 626.957 776.793 626.35 776.05 626.35ZM789.55 626.35C788.808 626.35 788.2 626.957 788.2 627.7C788.2 628.442 788.808 629.05 789.55 629.05C790.293 629.05 790.9 628.442 790.9 627.7C790.9 626.957 790.293 626.35 789.55 626.35ZM782.8 626.35C782.058 626.35 781.45 626.957 781.45 627.7C781.45 628.442 782.058 629.05 782.8 629.05C783.543 629.05 784.15 628.442 784.15 627.7C784.15 626.957 783.543 626.35 782.8 626.35Z" fill="white"/>
<path d="M667.468 633.244C666.9 633.244 666.38 633.14 665.908 632.932C665.436 632.716 665.036 632.424 664.708 632.056C664.38 631.688 664.144 631.276 664 630.82L665.02 630.4C665.236 630.976 665.556 631.42 665.98 631.732C666.412 632.036 666.916 632.188 667.492 632.188C667.844 632.188 668.152 632.132 668.416 632.02C668.68 631.908 668.884 631.752 669.028 631.552C669.18 631.344 669.256 631.104 669.256 630.832C669.256 630.456 669.148 630.16 668.932 629.944C668.724 629.72 668.416 629.552 668.008 629.44L666.364 628.936C665.716 628.736 665.22 628.42 664.876 627.988C664.532 627.556 664.36 627.06 664.36 626.5C664.36 626.012 664.476 625.584 664.708 625.216C664.948 624.84 665.276 624.548 665.692 624.34C666.116 624.124 666.596 624.016 667.132 624.016C667.668 624.016 668.152 624.112 668.584 624.304C669.024 624.496 669.396 624.756 669.7 625.084C670.004 625.404 670.228 625.772 670.372 626.188L669.364 626.608C669.172 626.104 668.884 625.724 668.5 625.468C668.116 625.204 667.664 625.072 667.144 625.072C666.824 625.072 666.54 625.128 666.292 625.24C666.052 625.344 665.864 625.5 665.728 625.708C665.6 625.908 665.536 626.148 665.536 626.428C665.536 626.756 665.64 627.048 665.848 627.304C666.056 627.56 666.372 627.756 666.796 627.892L668.296 628.336C669 628.552 669.532 628.86 669.892 629.26C670.252 629.66 670.432 630.156 670.432 630.748C670.432 631.236 670.304 631.668 670.048 632.044C669.8 632.42 669.452 632.716 669.004 632.932C668.564 633.14 668.052 633.244 667.468 633.244ZM672.022 633.1V624.016H673.138V627.892L672.934 627.784C673.094 627.376 673.35 627.06 673.702 626.836C674.062 626.604 674.482 626.488 674.962 626.488C675.426 626.488 675.838 626.592 676.198 626.8C676.566 627.008 676.854 627.296 677.062 627.664C677.278 628.032 677.386 628.448 677.386 628.912V633.1H676.258V629.272C676.258 628.912 676.19 628.608 676.054 628.36C675.926 628.112 675.746 627.92 675.514 627.784C675.282 627.64 675.014 627.568 674.71 627.568C674.414 627.568 674.146 627.64 673.906 627.784C673.666 627.92 673.478 628.116 673.342 628.372C673.206 628.62 673.138 628.92 673.138 629.272V633.1H672.022ZM680.879 633.244C680.455 633.244 680.079 633.168 679.751 633.016C679.431 632.856 679.179 632.64 678.995 632.368C678.811 632.088 678.719 631.768 678.719 631.408C678.719 631.064 678.791 630.756 678.935 630.484C679.087 630.204 679.319 629.968 679.631 629.776C679.951 629.584 680.351 629.448 680.831 629.368L683.231 628.972V629.908L681.083 630.268C680.667 630.34 680.363 630.472 680.171 630.664C679.987 630.856 679.895 631.092 679.895 631.372C679.895 631.636 679.999 631.856 680.207 632.032C680.423 632.208 680.691 632.296 681.011 632.296C681.419 632.296 681.771 632.212 682.067 632.044C682.371 631.868 682.607 631.632 682.775 631.336C682.951 631.04 683.039 630.712 683.039 630.352V628.708C683.039 628.356 682.907 628.072 682.643 627.856C682.387 627.632 682.047 627.52 681.623 627.52C681.255 627.52 680.927 627.616 680.639 627.808C680.359 627.992 680.151 628.24 680.015 628.552L679.043 628.048C679.163 627.752 679.355 627.488 679.619 627.256C679.883 627.016 680.191 626.828 680.543 626.692C680.895 626.556 681.263 626.488 681.647 626.488C682.143 626.488 682.579 626.584 682.955 626.776C683.331 626.96 683.623 627.22 683.831 627.556C684.047 627.884 684.155 628.268 684.155 628.708V633.1H683.063V631.876L683.267 631.948C683.131 632.204 682.947 632.428 682.715 632.62C682.483 632.812 682.211 632.964 681.899 633.076C681.587 633.188 681.247 633.244 680.879 633.244ZM685.885 633.1V626.632H686.977V627.82L686.857 627.652C687.009 627.284 687.241 627.012 687.553 626.836C687.865 626.652 688.245 626.56 688.693 626.56H689.089V627.616H688.525C688.069 627.616 687.701 627.76 687.421 628.048C687.141 628.328 687.001 628.728 687.001 629.248V633.1H685.885ZM693.057 633.244C692.433 633.244 691.877 633.096 691.389 632.8C690.901 632.504 690.517 632.1 690.237 631.588C689.957 631.068 689.817 630.488 689.817 629.848C689.817 629.2 689.953 628.624 690.225 628.12C690.505 627.616 690.881 627.22 691.353 626.932C691.833 626.636 692.369 626.488 692.961 626.488C693.441 626.488 693.865 626.576 694.233 626.752C694.609 626.92 694.925 627.152 695.181 627.448C695.445 627.736 695.645 628.068 695.781 628.444C695.925 628.812 695.997 629.196 695.997 629.596C695.997 629.684 695.989 629.784 695.973 629.896C695.965 630 695.953 630.1 695.937 630.196H690.633V629.236H695.289L694.761 629.668C694.833 629.252 694.793 628.88 694.641 628.552C694.489 628.224 694.265 627.964 693.969 627.772C693.673 627.58 693.337 627.484 692.961 627.484C692.585 627.484 692.241 627.58 691.929 627.772C691.617 627.964 691.373 628.24 691.197 628.6C691.029 628.952 690.961 629.372 690.993 629.86C690.961 630.332 691.033 630.748 691.209 631.108C691.393 631.46 691.649 631.736 691.977 631.936C692.313 632.128 692.677 632.224 693.069 632.224C693.501 632.224 693.865 632.124 694.161 631.924C694.457 631.724 694.697 631.468 694.881 631.156L695.817 631.636C695.689 631.932 695.489 632.204 695.217 632.452C694.953 632.692 694.637 632.884 694.269 633.028C693.909 633.172 693.505 633.244 693.057 633.244Z" fill="#656565"/>
<path d="M708.646 633.1V624.16H711.802C712.394 624.16 712.914 624.272 713.362 624.496C713.81 624.72 714.158 625.04 714.406 625.456C714.662 625.872 714.79 626.36 714.79 626.92C714.79 627.48 714.662 627.968 714.406 628.384C714.158 628.792 713.81 629.112 713.362 629.344C712.922 629.568 712.402 629.68 711.802 629.68H709.822V633.1H708.646ZM709.822 628.6H711.838C712.198 628.6 712.51 628.532 712.774 628.396C713.038 628.26 713.242 628.064 713.386 627.808C713.53 627.552 713.602 627.256 713.602 626.92C713.602 626.576 713.53 626.28 713.386 626.032C713.242 625.776 713.038 625.58 712.774 625.444C712.51 625.308 712.198 625.24 711.838 625.24H709.822V628.6ZM716.249 633.1V626.632H717.341V627.82L717.221 627.652C717.373 627.284 717.605 627.012 717.917 626.836C718.229 626.652 718.609 626.56 719.057 626.56H719.453V627.616H718.889C718.433 627.616 718.065 627.76 717.785 628.048C717.505 628.328 717.365 628.728 717.365 629.248V633.1H716.249ZM723.42 633.244C722.796 633.244 722.24 633.096 721.752 632.8C721.264 632.504 720.88 632.1 720.6 631.588C720.32 631.068 720.18 630.488 720.18 629.848C720.18 629.2 720.316 628.624 720.588 628.12C720.868 627.616 721.244 627.22 721.716 626.932C722.196 626.636 722.732 626.488 723.324 626.488C723.804 626.488 724.228 626.576 724.596 626.752C724.972 626.92 725.288 627.152 725.544 627.448C725.808 627.736 726.008 628.068 726.144 628.444C726.288 628.812 726.36 629.196 726.36 629.596C726.36 629.684 726.352 629.784 726.336 629.896C726.328 630 726.316 630.1 726.3 630.196H720.996V629.236H725.652L725.124 629.668C725.196 629.252 725.156 628.88 725.004 628.552C724.852 628.224 724.628 627.964 724.332 627.772C724.036 627.58 723.7 627.484 723.324 627.484C722.948 627.484 722.604 627.58 722.292 627.772C721.98 627.964 721.736 628.24 721.56 628.6C721.392 628.952 721.324 629.372 721.356 629.86C721.324 630.332 721.396 630.748 721.572 631.108C721.756 631.46 722.012 631.736 722.34 631.936C722.676 632.128 723.04 632.224 723.432 632.224C723.864 632.224 724.228 632.124 724.524 631.924C724.82 631.724 725.06 631.468 725.244 631.156L726.18 631.636C726.052 631.932 725.852 632.204 725.58 632.452C725.316 632.692 725 632.884 724.632 633.028C724.272 633.172 723.868 633.244 723.42 633.244ZM730.131 633.244C729.483 633.244 728.919 633.084 728.439 632.764C727.959 632.444 727.619 632.012 727.419 631.468L728.307 631.036C728.491 631.42 728.743 631.724 729.063 631.948C729.383 632.172 729.739 632.284 730.131 632.284C730.483 632.284 730.775 632.2 731.007 632.032C731.239 631.864 731.355 631.644 731.355 631.372C731.355 631.18 731.299 631.028 731.187 630.916C731.083 630.796 730.955 630.704 730.803 630.64C730.651 630.568 730.511 630.516 730.383 630.484L729.411 630.208C728.827 630.04 728.399 629.8 728.127 629.488C727.863 629.176 727.731 628.812 727.731 628.396C727.731 628.012 727.827 627.68 728.019 627.4C728.219 627.112 728.487 626.888 728.823 626.728C729.167 626.568 729.551 626.488 729.975 626.488C730.543 626.488 731.051 626.632 731.499 626.92C731.955 627.208 732.279 627.612 732.471 628.132L731.559 628.552C731.415 628.216 731.199 627.952 730.911 627.76C730.623 627.56 730.299 627.46 729.939 627.46C729.611 627.46 729.351 627.544 729.159 627.712C728.967 627.872 728.871 628.076 728.871 628.324C728.871 628.508 728.919 628.66 729.015 628.78C729.111 628.892 729.227 628.98 729.363 629.044C729.499 629.1 729.631 629.148 729.759 629.188L730.815 629.5C731.343 629.652 731.751 629.888 732.039 630.208C732.335 630.528 732.483 630.912 732.483 631.36C732.483 631.72 732.383 632.044 732.183 632.332C731.983 632.62 731.707 632.844 731.355 633.004C731.003 633.164 730.595 633.244 730.131 633.244ZM736.92 633.244C736.296 633.244 735.74 633.096 735.252 632.8C734.764 632.504 734.38 632.1 734.1 631.588C733.82 631.068 733.68 630.488 733.68 629.848C733.68 629.2 733.816 628.624 734.088 628.12C734.368 627.616 734.744 627.22 735.216 626.932C735.696 626.636 736.232 626.488 736.824 626.488C737.304 626.488 737.728 626.576 738.096 626.752C738.472 626.92 738.788 627.152 739.044 627.448C739.308 627.736 739.508 628.068 739.644 628.444C739.788 628.812 739.86 629.196 739.86 629.596C739.86 629.684 739.852 629.784 739.836 629.896C739.828 630 739.816 630.1 739.8 630.196H734.496V629.236H739.152L738.624 629.668C738.696 629.252 738.656 628.88 738.504 628.552C738.352 628.224 738.128 627.964 737.832 627.772C737.536 627.58 737.2 627.484 736.824 627.484C736.448 627.484 736.104 627.58 735.792 627.772C735.48 627.964 735.236 628.24 735.06 628.6C734.892 628.952 734.824 629.372 734.856 629.86C734.824 630.332 734.896 630.748 735.072 631.108C735.256 631.46 735.512 631.736 735.84 631.936C736.176 632.128 736.54 632.224 736.932 632.224C737.364 632.224 737.728 632.124 738.024 631.924C738.32 631.724 738.56 631.468 738.744 631.156L739.68 631.636C739.552 631.932 739.352 632.204 739.08 632.452C738.816 632.692 738.5 632.884 738.132 633.028C737.772 633.172 737.368 633.244 736.92 633.244ZM741.315 633.1V626.632H742.407V627.892L742.227 627.784C742.387 627.376 742.643 627.06 742.995 626.836C743.355 626.604 743.775 626.488 744.255 626.488C744.719 626.488 745.131 626.592 745.491 626.8C745.859 627.008 746.147 627.296 746.355 627.664C746.571 628.032 746.679 628.448 746.679 628.912V633.1H745.551V629.272C745.551 628.912 745.487 628.608 745.359 628.36C745.231 628.112 745.047 627.92 744.807 627.784C744.575 627.64 744.307 627.568 744.003 627.568C743.699 627.568 743.427 627.64 743.187 627.784C742.955 627.92 742.771 628.116 742.635 628.372C742.499 628.62 742.431 628.92 742.431 629.272V633.1H741.315ZM750.904 633.172C750.272 633.172 749.784 632.992 749.44 632.632C749.104 632.272 748.936 631.764 748.936 631.108V627.7H747.76V626.632H748C748.288 626.632 748.516 626.544 748.684 626.368C748.852 626.192 748.936 625.96 748.936 625.672V625.144H750.052V626.632H751.504V627.7H750.052V631.072C750.052 631.288 750.084 631.476 750.148 631.636C750.22 631.796 750.336 631.924 750.496 632.02C750.656 632.108 750.868 632.152 751.132 632.152C751.188 632.152 751.256 632.148 751.336 632.14C751.424 632.132 751.504 632.124 751.576 632.116V633.1C751.472 633.124 751.356 633.14 751.228 633.148C751.1 633.164 750.992 633.172 750.904 633.172Z" fill="#656565"/>
<g clip-path="url(#clip0_186_2178)">
<circle cx="643.27" cy="627.67" r="9.216" fill="white"/>
<circle cx="636.358" cy="634.582" r="2.304" fill="#10A340" stroke="#EBE9E9" stroke-width="0.768"/>
<path d="M643.537 631.985C642.906 631.985 642.353 631.875 641.878 631.654C641.411 631.424 641.046 631.105 640.784 630.695C640.522 630.286 640.387 629.806 640.379 629.258H641.669C641.677 629.569 641.751 629.856 641.89 630.118C642.038 630.372 642.247 630.576 642.517 630.732C642.795 630.88 643.135 630.953 643.537 630.953C643.881 630.953 644.176 630.896 644.421 630.781C644.675 630.667 644.868 630.511 644.999 630.314C645.13 630.109 645.196 629.876 645.196 629.614C645.196 629.319 645.126 629.077 644.987 628.889C644.856 628.692 644.675 628.528 644.446 628.397C644.217 628.266 643.95 628.152 643.647 628.053C643.344 627.955 643.025 627.848 642.689 627.734C641.993 627.504 641.476 627.214 641.141 626.861C640.813 626.509 640.649 626.05 640.649 625.485C640.649 625.002 640.76 624.584 640.981 624.232C641.21 623.871 641.534 623.593 641.952 623.396C642.369 623.191 642.857 623.089 643.414 623.089C643.971 623.089 644.458 623.191 644.876 623.396C645.294 623.601 645.622 623.884 645.859 624.244C646.097 624.604 646.22 625.026 646.228 625.51H644.925C644.917 625.288 644.856 625.071 644.741 624.858C644.626 624.645 644.454 624.473 644.225 624.342C643.995 624.203 643.713 624.133 643.377 624.133C643.098 624.125 642.849 624.17 642.627 624.269C642.406 624.367 642.234 624.51 642.111 624.699C641.988 624.887 641.927 625.112 641.927 625.375C641.927 625.637 641.98 625.85 642.087 626.013C642.201 626.169 642.365 626.304 642.578 626.419C642.791 626.534 643.037 626.64 643.316 626.738C643.602 626.829 643.918 626.931 644.262 627.046C644.688 627.185 645.065 627.357 645.392 627.562C645.728 627.758 645.994 628.016 646.191 628.336C646.388 628.647 646.486 629.049 646.486 629.54C646.486 629.966 646.371 630.363 646.142 630.732C645.921 631.101 645.593 631.404 645.159 631.641C644.733 631.871 644.192 631.985 643.537 631.985Z" fill="black"/>
</g>
<path d="M31.9624 635.6L31.9624 621.8M29.3749 635.6C28.9174 635.6 28.4786 635.418 28.1551 635.095C27.8316 634.771 27.6499 634.332 27.6499 633.875L27.6499 623.525C27.6499 623.067 27.8316 622.629 28.1551 622.305C28.4786 621.982 28.9174 621.8 29.3749 621.8H39.7249C40.1824 621.8 40.6212 621.982 40.9447 622.305C41.2682 622.629 41.4499 623.067 41.4499 623.525V633.875C41.4499 634.332 41.2682 634.771 40.9447 635.095C40.6212 635.418 40.1824 635.6 39.7249 635.6H29.3749Z" stroke="white" stroke-width="0.6" stroke-linecap="round" stroke-linejoin="round"/>
<path d="M53.3959 633.2V624.26H59.2159V625.34H54.5719V628.172H58.9759V629.252H54.5719V632.12H59.2159V633.2H53.3959ZM59.8092 633.2L62.0772 629.96L59.8212 626.732H61.1652L63.0972 629.54H62.4132L64.3212 626.732H65.6772L63.4212 629.96L65.6652 633.2H64.3212L62.4132 630.392H63.0852L61.1772 633.2H59.8092ZM66.6702 635.6V626.732H67.7622V628.124L67.6182 627.848C67.8582 627.464 68.1862 627.16 68.6022 626.936C69.0182 626.704 69.4942 626.588 70.0302 626.588C70.6382 626.588 71.1822 626.736 71.6622 627.032C72.1502 627.328 72.5342 627.732 72.8142 628.244C73.0942 628.748 73.2342 629.324 73.2342 629.972C73.2342 630.604 73.0942 631.176 72.8142 631.688C72.5342 632.2 72.1502 632.604 71.6622 632.9C71.1822 633.196 70.6342 633.344 70.0182 633.344C69.4982 633.344 69.0222 633.228 68.5902 632.996C68.1662 632.764 67.8382 632.436 67.6062 632.012L67.7862 631.82V635.6H66.6702ZM69.9342 632.264C70.3422 632.264 70.7062 632.164 71.0262 631.964C71.3462 631.764 71.5942 631.492 71.7702 631.148C71.9542 630.796 72.0462 630.404 72.0462 629.972C72.0462 629.524 71.9542 629.132 71.7702 628.796C71.5942 628.452 71.3462 628.18 71.0262 627.98C70.7062 627.772 70.3422 627.668 69.9342 627.668C69.5262 627.668 69.1582 627.768 68.8302 627.968C68.5102 628.168 68.2542 628.444 68.0622 628.796C67.8782 629.14 67.7862 629.532 67.7862 629.972C67.7862 630.404 67.8782 630.796 68.0622 631.148C68.2542 631.492 68.5102 631.764 68.8302 631.964C69.1582 632.164 69.5262 632.264 69.9342 632.264ZM74.6975 633.2V624.116H75.8135V633.2H74.6975ZM80.6172 633.344C79.9932 633.344 79.4292 633.2 78.9252 632.912C78.4212 632.616 78.0212 632.212 77.7252 631.7C77.4292 631.188 77.2812 630.608 77.2812 629.96C77.2812 629.312 77.4252 628.736 77.7132 628.232C78.0092 627.728 78.4092 627.328 78.9132 627.032C79.4172 626.736 79.9852 626.588 80.6172 626.588C81.2412 626.588 81.8052 626.736 82.3092 627.032C82.8132 627.32 83.2092 627.716 83.4972 628.22C83.7932 628.724 83.9412 629.304 83.9412 629.96C83.9412 630.616 83.7892 631.2 83.4852 631.712C83.1812 632.216 82.7772 632.616 82.2732 632.912C81.7772 633.2 81.2252 633.344 80.6172 633.344ZM80.6172 632.264C81.0172 632.264 81.3772 632.164 81.6972 631.964C82.0252 631.764 82.2812 631.488 82.4652 631.136C82.6572 630.784 82.7532 630.392 82.7532 629.96C82.7532 629.52 82.6572 629.132 82.4652 628.796C82.2812 628.452 82.0252 628.18 81.6972 627.98C81.3772 627.772 81.0172 627.668 80.6172 627.668C80.2092 627.668 79.8412 627.772 79.5132 627.98C79.1932 628.18 78.9372 628.452 78.7452 628.796C78.5532 629.132 78.4572 629.52 78.4572 629.96C78.4572 630.392 78.5532 630.784 78.7452 631.136C78.9372 631.488 79.1932 631.764 79.5132 631.964C79.8412 632.164 80.2092 632.264 80.6172 632.264ZM85.3967 633.2V626.732H86.4887V627.92L86.3687 627.752C86.5207 627.384 86.7527 627.112 87.0647 626.936C87.3767 626.752 87.7567 626.66 88.2047 626.66H88.6007V627.716H88.0367C87.5807 627.716 87.2127 627.86 86.9327 628.148C86.6527 628.428 86.5127 628.828 86.5127 629.348V633.2H85.3967ZM92.568 633.344C91.944 633.344 91.388 633.196 90.9 632.9C90.412 632.604 90.028 632.2 89.748 631.688C89.468 631.168 89.328 630.588 89.328 629.948C89.328 629.3 89.464 628.724 89.736 628.22C90.016 627.716 90.392 627.32 90.864 627.032C91.344 626.736 91.88 626.588 92.472 626.588C92.952 626.588 93.376 626.676 93.744 626.852C94.12 627.02 94.436 627.252 94.692 627.548C94.956 627.836 95.156 628.168 95.292 628.544C95.436 628.912 95.508 629.296 95.508 629.696C95.508 629.784 95.5 629.884 95.484 629.996C95.476 630.1 95.464 630.2 95.448 630.296H90.144V629.336H94.8L94.272 629.768C94.344 629.352 94.304 628.98 94.152 628.652C94 628.324 93.776 628.064 93.48 627.872C93.184 627.68 92.848 627.584 92.472 627.584C92.096 627.584 91.752 627.68 91.44 627.872C91.128 628.064 90.884 628.34 90.708 628.7C90.54 629.052 90.472 629.472 90.504 629.96C90.472 630.432 90.544 630.848 90.72 631.208C90.904 631.56 91.16 631.836 91.488 632.036C91.824 632.228 92.188 632.324 92.58 632.324C93.012 632.324 93.376 632.224 93.672 632.024C93.968 631.824 94.208 631.568 94.392 631.256L95.328 631.736C95.2 632.032 95 632.304 94.728 632.552C94.464 632.792 94.148 632.984 93.78 633.128C93.42 633.272 93.016 633.344 92.568 633.344ZM102.241 633.344C101.673 633.344 101.153 633.24 100.681 633.032C100.209 632.816 99.8093 632.524 99.4813 632.156C99.1533 631.788 98.9173 631.376 98.7733 630.92L99.7933 630.5C100.009 631.076 100.329 631.52 100.753 631.832C101.185 632.136 101.689 632.288 102.265 632.288C102.617 632.288 102.925 632.232 103.189 632.12C103.453 632.008 103.657 631.852 103.801 631.652C103.953 631.444 104.029 631.204 104.029 630.932C104.029 630.556 103.921 630.26 103.705 630.044C103.497 629.82 103.189 629.652 102.781 629.54L101.137 629.036C100.489 628.836 99.9933 628.52 99.6493 628.088C99.3053 627.656 99.1333 627.16 99.1333 626.6C99.1333 626.112 99.2493 625.684 99.4813 625.316C99.7213 624.94 100.049 624.648 100.465 624.44C100.889 624.224 101.369 624.116 101.905 624.116C102.441 624.116 102.925 624.212 103.357 624.404C103.797 624.596 104.169 624.856 104.473 625.184C104.777 625.504 105.001 625.872 105.145 626.288L104.137 626.708C103.945 626.204 103.657 625.824 103.273 625.568C102.889 625.304 102.437 625.172 101.917 625.172C101.597 625.172 101.313 625.228 101.065 625.34C100.825 625.444 100.637 625.6 100.501 625.808C100.373 626.008 100.309 626.248 100.309 626.528C100.309 626.856 100.413 627.148 100.621 627.404C100.829 627.66 101.145 627.856 101.569 627.992L103.069 628.436C103.773 628.652 104.305 628.96 104.665 629.36C105.025 629.76 105.205 630.256 105.205 630.848C105.205 631.336 105.077 631.768 104.821 632.144C104.573 632.52 104.225 632.816 103.777 633.032C103.337 633.24 102.825 633.344 102.241 633.344ZM107.143 635.84C106.999 635.84 106.855 635.828 106.711 635.804C106.567 635.78 106.431 635.74 106.303 635.684V634.688C106.391 634.704 106.499 634.72 106.627 634.736C106.763 634.76 106.895 634.772 107.023 634.772C107.399 634.772 107.683 634.688 107.875 634.52C108.075 634.36 108.263 634.08 108.439 633.68L108.847 632.708L108.823 633.68L106.063 626.732H107.275L109.423 632.252H109.063L111.199 626.732H112.435L109.519 633.968C109.383 634.312 109.207 634.624 108.991 634.904C108.783 635.192 108.527 635.42 108.223 635.588C107.919 635.756 107.559 635.84 107.143 635.84ZM113.428 633.2V626.732H114.52V627.992L114.34 627.884C114.5 627.476 114.756 627.16 115.108 626.936C115.468 626.704 115.888 626.588 116.368 626.588C116.832 626.588 117.244 626.692 117.604 626.9C117.972 627.108 118.26 627.396 118.468 627.764C118.684 628.132 118.792 628.548 118.792 629.012V633.2H117.664V629.372C117.664 629.012 117.6 628.708 117.472 628.46C117.344 628.212 117.16 628.02 116.92 627.884C116.688 627.74 116.42 627.668 116.116 627.668C115.812 627.668 115.54 627.74 115.3 627.884C115.068 628.02 114.884 628.216 114.748 628.472C114.612 628.72 114.544 629.02 114.544 629.372V633.2H113.428ZM122.072 633.2L119.54 626.732H120.788L122.816 632.204H122.384L124.424 626.732H125.672L123.128 633.2H122.072ZM129.529 633.344C128.905 633.344 128.349 633.196 127.861 632.9C127.373 632.604 126.989 632.2 126.709 631.688C126.429 631.168 126.289 630.588 126.289 629.948C126.289 629.3 126.425 628.724 126.697 628.22C126.977 627.716 127.353 627.32 127.825 627.032C128.305 626.736 128.841 626.588 129.433 626.588C129.913 626.588 130.337 626.676 130.705 626.852C131.081 627.02 131.397 627.252 131.653 627.548C131.917 627.836 132.117 628.168 132.253 628.544C132.397 628.912 132.469 629.296 132.469 629.696C132.469 629.784 132.461 629.884 132.445 629.996C132.437 630.1 132.425 630.2 132.409 630.296H127.105V629.336H131.761L131.233 629.768C131.305 629.352 131.265 628.98 131.113 628.652C130.961 628.324 130.737 628.064 130.441 627.872C130.145 627.68 129.809 627.584 129.433 627.584C129.057 627.584 128.713 627.68 128.401 627.872C128.089 628.064 127.845 628.34 127.669 628.7C127.501 629.052 127.433 629.472 127.465 629.96C127.433 630.432 127.505 630.848 127.681 631.208C127.865 631.56 128.121 631.836 128.449 632.036C128.785 632.228 129.149 632.324 129.541 632.324C129.973 632.324 130.337 632.224 130.633 632.024C130.929 631.824 131.169 631.568 131.353 631.256L132.289 631.736C132.161 632.032 131.961 632.304 131.689 632.552C131.425 632.792 131.109 632.984 130.741 633.128C130.381 633.272 129.977 633.344 129.529 633.344ZM134.272 635.84C134.128 635.84 133.984 635.828 133.84 635.804C133.696 635.78 133.56 635.74 133.432 635.684V634.688C133.52 634.704 133.628 634.72 133.756 634.736C133.892 634.76 134.024 634.772 134.152 634.772C134.528 634.772 134.812 634.688 135.004 634.52C135.204 634.36 135.392 634.08 135.568 633.68L135.976 632.708L135.952 633.68L133.192 626.732H134.404L136.552 632.252H136.192L138.328 626.732H139.564L136.648 633.968C136.512 634.312 136.336 634.624 136.12 634.904C135.912 635.192 135.656 635.42 135.352 635.588C135.048 635.756 134.688 635.84 134.272 635.84Z" fill="#656565"/>
<g clip-path="url(#clip1_186_2178)">
<path d="M415.809 606H415.808C401.002 606 389 618.002 389 632.808V632.809C389 647.615 401.002 659.617 415.808 659.617H415.809C430.615 659.617 442.617 647.615 442.617 632.809V632.808C442.617 618.002 430.615 606 415.809 606Z" fill="#0C0C0C"/>
<path d="M412.018 617.644H407.485V647.971C407.51 647.971 407.535 647.972 407.561 647.972H412.018V617.644Z" fill="white"/>
<path d="M430.748 647.372L427.928 639.618L427.921 639.636L423.618 627.768L421.77 622.687C420.553 619.65 417.607 617.645 414.318 617.645L425.312 647.973H430.966L430.748 647.372Z" fill="white"/>
</g>
<defs>
<clipPath id="clip0_186_2178">
<rect width="18.432" height="18.432" fill="white" transform="translate(634.054 618.454)"/>
</clipPath>
<clipPath id="clip1_186_2178">
<rect width="53.617" height="53.617" fill="white" transform="translate(389 606)"/>
</clipPath>
</defs>
</svg>
